<svg xmlns="http://www.w3.org/2000/svg" version="1.1" xmlns:xlink="http://www.w3.org/1999/xlink" xmlns:svgjs="http://svgjs.dev/svgjs" width="1440" height="560" preserveAspectRatio="none" viewBox="0 0 1440 560"><g mask="url(&quot;#SvgjsMask1006&quot;)" fill="none"><rect width="1440" height="560" x="0" y="0" fill="rgba(175, 223, 154, 0.53)"></rect><path d="M 0,22 C 57.6,69 172.8,235.2 288,257 C 403.2,278.8 460.8,142.6 576,131 C 691.2,119.4 748.8,214.6 864,199 C 979.2,183.4 1036.8,42.2 1152,53 C 1267.2,63.8 1382.4,213 1440,253L1440 560L0 560z" fill="rgba(189, 230, 174, 1)"></path><path d="M 0,324 C 96,365.4 288,512 480,531 C 672,550 768,433.8 960,419 C 1152,404.2 1344,449.4 1440,457L1440 560L0 560z" fill="rgba(99, 193, 176, 1)"></path></g><defs><mask id="SvgjsMask1006"><rect width="1440" height="560" fill="#ffffff"></rect></mask></defs></svg>